<svg xmlns="http://www.w3.org/2000/svg" version="1.1" xmlns:xlink="http://www.w3.org/1999/xlink" xmlns:svgjs="http://svgjs.dev/svgjs" width="100%" height="100%" viewBox="0 0 1000 600"><rect width="1000" height="600" x="0" y="0" fill="#000000"/><g><rect width="333.3333333333333" height="333.3333333333333" rx="13.333333333333334" ry="13.333333333333334" y="237.1269185284376" fill="#ffffff" transform="matrix(0.5816532698967736,0,0,0.5816532698967737,0,65.13216073766823)" x="214.90475463867188"/><path d="M258.6347890514917 476.778209121259L258.6347890514917 328.7935815440323L300.55416993718086 328.7935815440323Q328.2796945202293 328.7935815440323 342.2432245542673 337.08532721372904Q356.2067545883052 345.40586366700114 356.2067545883052 365.3290859011336L356.2067545883052 365.3290859011336Q356.2067545883052 373.93753019015907 352.92460526071693 380.7609458975137Q349.6424559331286 387.6131523884436 343.36606511370536 392.0469330590454Q337.08967429428213 396.50950451322245 327.8766235501746 398.2369515277426L327.8766235501746 398.2369515277426L327.8766235501746 399.24462895287934Q337.57911761506284 400.77054048237216 345.0647213446502 404.8012501829192Q352.5791158578129 408.86075066704154 356.81136104338725 416.14481891160153Q361.07239701253695 423.4288871561615 361.07239701253695 434.6572927505426L361.07239701253695 434.6572927505426Q361.07239701253695 448.3329149488271 354.73842462596303 457.747501177962Q348.4044522393892 467.1620874070968 336.88813880925477 471.97014826417796Q325.3430345955451 476.778209121259 309.5368944126856 476.778209121259L309.5368944126856 476.778209121259L258.6347890514917 476.778209121259ZM275.85167762954256 343.47688116745366L275.85167762954256 392.2484685440727L304.1818086676732 392.2484685440727Q323.5292152302989 392.2484685440727 330.9572373927356 385.8857053739235Q338.38525955517224 379.4941514201989 338.38525955517224 367.2580684006811L338.38525955517224 367.2580684006811Q338.38525955517224 354.6189144111087 329.5464889975441 349.03350239749346Q320.67892765634065 343.47688116745366 301.3603118772902 343.47688116745366L301.3603118772902 343.47688116745366L275.85167762954256 343.47688116745366ZM305.1031137420839 406.7302326824667L275.85167762954256 406.7302326824667L275.85167762954256 462.0949094978377L306.62902527157667 462.0949094978377Q326.35071202068184 462.0949094978377 334.55608533965255 454.35018871607235Q342.7614586586233 446.60546793430694 342.7614586586233 433.44807984037845L342.7614586586233 433.44807984037845Q342.7614586586233 425.06996181995567 339.04744757740497 419.0814788362858Q335.362227279762 413.12178663619125 327.09927239364055 409.926009659329Q318.8651082910945 406.7302326824667 305.1031137420839 406.7302326824667L305.1031137420839 406.7302326824667ZM487.3775645575357 328.7935815440323L504.5080807848606 328.7935815440323L504.5080807848606 424.55172771559967Q504.5080807848606 440.24270476415774 498.17410839828676 452.4787877836755Q491.84013601171284 464.7436615867686 479.08581888783897 471.7686127791506Q466.3315017639652 478.79356397153254 447.09925833564074 478.79356397153254L447.09925833564074 478.79356397153254Q419.6616415883456 478.79356397153254 405.3526221514037 463.9375196466592Q391.0436027144617 449.05268453821054 391.0436027144617 424.14865674554494L391.0436027144617 424.14865674554494L391.0436027144617 328.7935815440323L408.34686364323863 328.7935815440323L408.34686364323863 424.63810006632565Q408.34686364323863 443.4672725245954 418.3084747603048 453.6880006938396Q428.27008587737106 463.9375196466592 448.10693576077756 463.9375196466592L448.10693576077756 463.9375196466592Q461.6673948247607 463.9375196466592 470.33342068093685 459.0142956552768Q478.99944653711293 454.09107166389435 483.20290093911206 445.2523011062662Q487.3775645575357 436.3847397650627 487.3775645575357 424.753263200627L487.3775645575357 424.753263200627L487.3775645575357 328.7935815440323Z " fill="#Fffffff" transform="matrix(0.5816532698967736,0,0,0.5816532698967737,0,65.13216073766823)"/><path d="M631.5714347264402 442.7044505194939L631.5714347264402 335.6657261821088L661.8921317371859 335.6657261821088Q681.9462740595403 335.6657261821088 692.0462315116088 341.66322668972884Q702.1461889636771 347.6815518518892 702.1461889636771 362.09221279380955L702.1461889636771 362.09221279380955Q702.1461889636771 368.3187845013734 699.7721783460776 373.2542276274357Q697.398167728478 378.21049540803835 692.8583930386823 381.4174922072518Q688.3186183488865 384.6453136610057 681.6547288959755 385.8947929334265L681.6547288959755 385.8947929334265L681.6547288959755 386.6236558423386Q688.6726374760725 387.72736253297705 694.0870476565627 390.6428141686257Q699.5222824915934 393.5790904588147 702.5835067090245 398.8477280575225Q705.6655555809958 404.11636565623036 705.6655555809958 412.2379809269658L705.6655555809958 412.2379809269658Q705.6655555809958 422.1296918336308 701.0841315821194 428.93935386832436Q696.502707583243 435.7490159030179 688.1728457671041 439.2267332112559Q679.8221592964248 442.7044505194939 668.3894239537742 442.7044505194939L668.3894239537742 442.7044505194939L631.5714347264402 442.7044505194939ZM644.0245781415679 346.28629999768594L644.0245781415679 381.56326478903424L664.5160382092696 381.56326478903424Q678.510206060383 381.56326478903424 683.8829669317926 376.9610161356175Q689.2557278032023 372.3379428276604 689.2557278032023 363.4874646480128L689.2557278032023 363.4874646480128Q689.2557278032023 354.3454413048004 682.8625588593156 350.30545832397297Q676.4485652608886 346.28629999768594 662.4752220643156 346.28629999768594L662.4752220643156 346.28629999768594L644.0245781415679 346.28629999768594ZM665.1824271545607 392.03806602282896L644.0245781415679 392.03806602282896L644.0245781415679 432.08387670391676L666.2861338451992 432.08387670391676Q680.5510222053371 432.08387670391676 686.4860487493361 426.4820446325634Q692.421075293335 420.88021256120993 692.421075293335 411.36334543627123L692.421075293335 411.36334543627123Q692.421075293335 405.3033709650302 689.7346948576302 400.9718428206379Q687.0691390764657 396.66113933078606 681.0924632233861 394.3496026768075Q675.1366120248467 392.03806602282896 665.1824271545607 392.03806602282896L665.1824271545607 392.03806602282896ZM726.594333394045 328.7935901837942L738.7559316456077 328.7935901837942L738.7559316456077 362.8210757027217Q738.7559316456077 365.7573519929107 738.6101590638252 368.71445293764Q738.4643864820429 371.69237853690964 738.0895427003165 374.17051242721095L738.0895427003165 374.17051242721095L738.9017042273902 374.17051242721095Q741.4006627722318 369.9222829009801 745.2323992076557 367.0484805744122Q749.08496029762 364.1538535933039 753.9787541146015 362.6544784663989Q758.8933725861235 361.1551033394939 764.3702567302348 361.1551033394939L764.3702567302348 361.1551033394939Q774.0537210914964 361.1551033394939 780.5301886535444 364.21632755692497Q787.0066562155923 367.29837642889635 790.2553023238866 373.73319468186367Q793.5247730867211 380.18883758937136 793.5247730867211 390.4345676232222L793.5247730867211 390.4345676232222L793.5247730867211 442.7044505194939L781.5089474169407 442.7044505194939L781.5089474169407 391.2467291502958Q781.5089474169407 381.20924566184834 776.9275234180643 376.23215322670535Q772.3669240737282 371.25506079156236 762.9125309124106 371.25506079156236L762.9125309124106 371.25506079156236Q753.9787541146015 371.25506079156236 748.668467206813 374.64947948163893Q743.3581802990244 378.0647228262559 741.0674682995863 384.6453136610057Q738.7559316456077 391.2467291502958 738.7559316456077 400.7635962752345L738.7559316456077 400.7635962752345L738.7559316456077 442.7044505194939L726.594333394045 442.7044505194939L726.594333394045 328.7935901837942ZM848.564335036859 361.1551033394939L848.564335036859 361.1551033394939Q862.9333466696986 361.1551033394939 869.8679566316342 367.5899215924612Q876.8233912481103 374.02473984542854 876.8233912481103 388.16468027832434L876.8233912481103 388.16468027832434L876.8233912481103 442.7044505194939L867.9729130684626 442.7044505194939L865.6405517599437 430.834397431496L865.0366367782736 430.834397431496Q861.6838673972777 435.2283995395092 858.0187281981766 438.2063251387789Q854.3535889990756 441.16342608350817 849.5639184547956 442.6628012104132Q844.7742479105158 444.1621763373182 837.8188132940397 444.1621763373182L837.8188132940397 444.1621763373182Q830.4885348958376 444.1621763373182 824.8242288608631 441.6007438288555Q819.1390981713482 439.0393113203928 815.8904520630541 433.85397233984634Q812.6209813002196 428.6478087047595 812.6209813002196 420.67196601580645L812.6209813002196 420.67196601580645Q812.6209813002196 408.65614034602606 822.1378484251583 402.2213220930588Q831.654715550097 395.7656791855511 851.1257675453217 395.18258885842135L851.1257675453217 395.18258885842135L864.9741628146526 394.59949853129166L864.9741628146526 389.70570471431006Q864.9741628146526 379.2933774441364 860.496862088478 375.1284465360669Q856.0403860168436 370.9635156279975 847.9187707461082 370.9635156279975L847.9187707461082 370.9635156279975Q841.608900420383 370.9635156279975 835.9029450763278 372.796085227548Q830.1969897322726 374.60783017255824 825.0741247153472 377.1067887173999L825.0741247153472 377.1067887173999L821.3465115526251 367.8814667560261Q826.7609217331153 365.09096304761954 833.7788303132124 363.1334455208269Q840.8175635478498 361.1551033394939 848.564335036859 361.1551033394939ZM864.8283902328702 410.57200856373805L864.8283902328702 403.1792562019147L852.6043180176864 403.67904791088307Q837.589742094096 404.2621382380128 831.4464690046935 408.59366638240505Q825.2823712607507 412.90436987225695 825.2823712607507 420.8177385975889L825.2823712607507 420.8177385975889Q825.2823712607507 427.6898745959035 829.4681268233605 430.9801700132784Q833.63305773143 434.2912900851936 840.526018384285 434.2912900851936L840.526018384285 434.2912900851936Q851.209066163483 434.2912900851936 858.0187281981766 428.3562635411946Q864.8283902328702 422.42123699719565 864.8283902328702 410.57200856373805L864.8283902328702 410.57200856373805ZM933.4248022887741 442.7044505194939L919.5139330558222 442.7044505194939L889.0682881178345 362.4670565755358L902.0836972055515 362.4670565755358L919.743004255766 411.00932630908534Q921.5755738553166 415.98641874422833 923.4706174184882 421.98391925184836Q925.3656609816599 427.9814197594684 926.094523890572 431.64655895856947L926.094523890572 431.64655895856947L926.6151402540806 431.64655895856947Q927.4897757447752 427.9814197594684 929.5514165442696 421.94226994276767Q931.5922326892236 415.90312012606694 933.2790297069918 411.00932630908534L933.2790297069918 411.00932630908534L950.9175121026659 362.4670565755358L963.9537458449233 362.4670565755358L933.4248022887741 442.7044505194939ZM996.2319603824616 442.85022310127636L964.0995184267058 362.4670565755358L977.1357521689631 362.4670565755358L994.8575331827986 409.03098412775233Q996.377732964244 413.13344107220075 997.7105108548262 416.9027035440036Q999.0224640908681 420.67196601580645 1000.0428721633452 424.1080340149638Q1001.0632802358223 427.5441020141211 1001.6671952174922 430.7719234678749L1001.6671952174922 430.7719234678749L1002.1669869264606 430.7719234678749Q1003.1873949989376 427.10678426877377 1005.1032632166496 421.1509330702345Q1006.9983067798212 415.1742572171548 1009.2057201610979 408.94768550959094L1009.2057201610979 408.94768550959094L1025.9695670660776 362.4670565755358L1039.068274771956 362.4670565755358L1004.1453291077936 454.49120498933047Q1001.3756500539274 461.88395735115375 997.6688615457456 467.3816661498055Q993.9620730375638 472.8585502939168 988.6934354388559 475.83647589318645Q983.4247978401481 478.7935768379158 975.9695715147037 478.7935768379158L975.9695715147037 478.7935768379158Q972.5126788610061 478.7935768379158 969.8887723889222 478.39790840164915Q967.2440412622982 478.00223996538256 965.3489976991266 477.4816236018739L965.3489976991266 477.4816236018739L965.3489976991266 467.7356852769914Q966.9524960987334 468.1105290587176 969.264032752712 468.40207422228247Q971.5755694066904 468.69361938584734 974.0537032969918 468.69361938584734L974.0537032969918 468.69361938584734Q978.5934779867874 468.69361938584734 981.925422713243 466.9651730589985Q985.2573674396986 465.25755138669 987.6730273663788 461.96725596931515Q990.0886872930591 458.65613589739996 991.8587829289886 454.1163612076042L991.8587829289886 454.1163612076042L996.2319603824616 442.85022310127636ZM1161.2673476147138 335.6657261821088L1173.6371924116802 335.6657261821088L1173.6371924116802 404.9285271833039Q1173.6371924116802 416.2779639077932 1169.055768412804 425.1284420874408Q1164.4743444139274 433.99974492162875 1155.2490224525536 439.08096062947345Q1146.0237004911796 444.1621763373182 1132.1128312582277 444.1621763373182L1132.1128312582277 444.1621763373182Q1112.287760135817 444.1621763373182 1101.917082174724 433.416654594499Q1091.5672288681715 422.65030819713945 1091.5672288681715 404.63698201973904L1091.5672288681715 404.63698201973904L1091.5672288681715 335.6657261821088L1104.0828462469203 335.6657261821088L1104.0828462469203 404.991001146925Q1104.0828462469203 418.6103252163121 1111.2881767178803 426.0030775781354Q1118.514331843381 433.416654594499 1132.8625188216802 433.416654594499L1132.8625188216802 433.416654594499Q1142.6709311101838 433.416654594499 1148.918327472288 429.85563866809963Q1155.1865484889327 426.2946227417002 1158.2269480518232 419.9014537978136Q1161.2673476147138 413.48746019938665 1161.2673476147138 405.0742997650864L1161.2673476147138 405.0742997650864L1161.2673476147138 335.6657261821088ZM1237.839602359571 361.0093307577115L1237.839602359571 361.0093307577115Q1252.8541782831612 361.0093307577115 1261.7879550809703 371.3175347551834Q1270.7217318787793 381.64656340719563 1270.7217318787793 402.36709467484116L1270.7217318787793 402.36709467484116Q1270.7217318787793 416.0488927078494 1266.6192749343309 425.3575132873846Q1262.5168179898824 434.6453092123795 1255.0824163189786 439.414155102119Q1247.6480146480744 444.1621763373182 1237.548057196006 444.1621763373182L1237.548057196006 444.1621763373182Q1231.1757129066598 444.1621763373182 1226.3443930532992 442.4753793195501Q1221.5130731999386 440.8094069563223 1218.0770052007813 437.9356046297544Q1214.640937201624 435.0826269577268 1212.3710498567261 431.72985757673086L1212.3710498567261 431.72985757673086L1211.4755897114912 431.72985757673086Q1211.704660911435 434.58283524875844 1212.0378553840806 438.60199357504547Q1212.3710498567261 442.6211519013325 1212.3710498567261 445.64072680968286L1212.3710498567261 445.64072680968286L1212.3710498567261 478.58533029251225L1200.1261529870021 478.58533029251225L1200.1261529870021 362.4670565755358L1210.1636364754495 362.4670565755358L1211.767134875056 374.3162850089934L1212.3710498567261 374.3162850089934Q1214.7034111652451 370.6719704644326 1218.0770052007813 367.6315709015419Q1221.4505992363174 364.59117133865124 1226.3027437442183 362.80025104818134Q1231.1757129066598 361.0093307577115 1237.839602359571 361.0093307577115ZM1235.7154875964554 371.25506079156236L1235.7154875964554 371.25506079156236Q1227.364801125776 371.25506079156236 1222.2835854179316 374.4620575907758Q1217.2023697100867 377.6898790445297 1214.8491837470274 384.1038726429566Q1212.5168224385086 390.49704158684324 1212.3710498567261 400.1596812935644L1212.3710498567261 400.1596812935644L1212.3710498567261 402.5128672566236Q1212.3710498567261 412.69612332685347 1214.5992878925433 419.7140319069505Q1216.8275259283605 426.7527651415879 1221.9920402543667 430.3970796861487Q1227.1565545803726 434.06221888524976 1235.861260178238 434.06221888524976L1235.861260178238 434.06221888524976Q1243.3373111582227 434.06221888524976 1248.3144035933656 430.04306055896274Q1253.2914960285084 426.0030775781354 1255.7488052642695 418.7977471071752Q1258.1852898454902 411.59241663621503 1258.1852898454902 402.2213220930588L1258.1852898454902 402.2213220930588Q1258.1852898454902 388.01890769654193 1252.666756392298 379.6265719167819Q1247.148222939106 371.25506079156236 1235.7154875964554 371.25506079156236ZM1328.32272633738 361.0093307577115L1328.32272633738 361.0093307577115Q1330.73838626406 361.0093307577115 1333.3831173906842 361.2592266121957Q1336.007023862768 361.5091224666798 1338.0686646622626 361.9464402120271L1338.0686646622626 361.9464402120271L1336.5276402262766 373.23340297289536Q1334.5492980449437 372.7127866093866 1332.1336381182634 372.4212414458218Q1329.717978191583 372.12969628225693 1327.5938634284676 372.12969628225693L1327.5938634284676 372.12969628225693Q1322.7625435751072 372.12969628225693 1318.4726647397956 374.06638915450924Q1314.2036105590244 376.00308202676155 1310.9757891052705 379.6265719167819Q1307.7479676515168 383.25006180680236 1305.9362227065064 388.35210216918745Q1304.103653106956 393.4333178770322 1304.103653106956 399.65988958459604L1304.103653106956 399.65988958459604L1304.103653106956 442.7044505194939L1291.879580891772 442.7044505194939L1291.879580891772 362.4670565755358L1301.9795383438404 362.4670565755358L1303.2914915798824 377.2525612991824L1303.8121079433909 377.2525612991824Q1306.2902418336923 372.796085227548 1309.8096084510112 369.08929671936625Q1313.3289750683298 365.3825082111844 1317.9728730308273 363.1959194844479Q1322.6167709933247 361.0093307577115 1328.32272633738 361.0093307577115ZM1384.0495018873492 361.0093307577115L1384.0495018873492 361.0093307577115Q1394.2952319212002 361.0093307577115 1401.604685664862 365.5491054475072Q1408.9349640630642 370.06805548276253 1412.808349807569 378.2313200625787Q1416.7025602066137 386.3945846423948 1416.7025602066137 397.3067036215368L1416.7025602066137 397.3067036215368L1416.7025602066137 404.8452285651425L1361.2673298202094 404.8452285651425Q1361.4964010201531 418.9851689980383 1368.3060630548466 426.3779213598616Q1375.1157250895403 433.77067372168494 1387.4855698865065 433.77067372168494L1387.4855698865065 433.77067372168494Q1395.1073934482738 433.77067372168494 1400.9591213741112 432.37542186748163Q1406.810849299949 430.9801700132784 1413.0998949711338 428.2729649230332L1413.0998949711338 428.2729649230332L1413.0998949711338 438.97683735677174Q1407.0399204998926 441.6840424470169 1401.063244646813 442.93352171943775Q1395.1073934482738 444.1621763373182 1386.9649535229978 444.1621763373182L1386.9649535229978 444.1621763373182Q1375.4072702531053 444.1621763373182 1366.8066879279418 439.4558044111997Q1358.2061056027783 434.7286078305409 1353.4372597130387 425.5657598327881Q1348.6892384778396 416.4237364895756 1348.6892384778396 403.1792562019147L1348.6892384778396 403.1792562019147Q1348.6892384778396 390.20549642327836 1353.0415912767721 380.73027860742036Q1357.3939440757047 371.25506079156236 1365.328137455577 366.1321957746369Q1373.2831554899894 361.0093307577115 1384.0495018873492 361.0093307577115ZM1383.9037293055667 370.9635156279975L1383.9037293055667 370.9635156279975Q1374.1577909806842 370.9635156279975 1368.3685370184676 377.3358599173438Q1362.6001077107915 383.68737955214965 1361.4964010201531 395.12011489480034L1361.4964010201531 395.12011489480034L1403.9578716279213 395.12011489480034Q1403.8745730097598 387.93560907838054 1401.7296335921042 382.4795495888095Q1399.563869519908 377.02349009923853 1395.1698674118948 374.00391519088816Q1390.7758653038813 370.9635156279975 1383.9037293055667 370.9635156279975ZM1463.2664877588304 434.20799146703223L1463.2664877588304 434.20799146703223Q1466.2652380126403 434.20799146703223 1469.4097608482327 433.70819975806387Q1472.5542836838254 433.1875833945552 1474.5326258651583 432.458720485643L1474.5326258651583 432.458720485643L1474.5326258651583 441.8922889924204Q1472.4085111020427 442.85022310127636 1468.63924863024 443.51661204656745Q1464.869986158437 444.1621763373182 1461.2881455774973 444.1621763373182L1461.2881455774973 444.1621763373182Q1454.915801288151 444.1621763373182 1449.7096376530642 441.93393830150103Q1444.524298672518 439.7057002656839 1441.4006004914659 434.35376404881464Q1438.297726964954 429.02265248648575 1438.297726964954 419.56825932516807L1438.297726964954 419.56825932516807L1438.297726964954 371.9839237004745L1426.8649916223033 371.9839237004745L1426.8649916223033 366.0488971564755L1438.360200928575 361.3008759212763L1443.1915207819357 343.87064007100565L1450.5217991801378 343.87064007100565L1450.5217991801378 362.4670565755358L1474.0120095016496 362.4670565755358L1474.0120095016496 371.9839237004745L1450.5217991801378 371.9839237004745L1450.5217991801378 419.1934155434418Q1450.5217991801378 426.7527651415879 1453.9995164883758 430.48037830431Q1457.4772337966137 434.20799146703223 1463.2664877588304 434.20799146703223ZM1490.7966810611695 362.4670565755358L1502.9374546581917 362.4670565755358L1502.9374546581917 442.7044505194939L1490.7966810611695 442.7044505194939L1490.7966810611695 362.4670565755358ZM1497.0024281141928 332.43790472835497L1497.0024281141928 332.43790472835497Q1500.001178368003 332.43790472835497 1502.166942440199 334.39542225514765Q1504.3327065123951 336.33211512739996 1504.3327065123951 340.4345720718484L1504.3327065123951 340.4345720718484Q1504.3327065123951 344.45373039813535 1502.166942440199 346.43207257946835Q1500.001178368003 348.41041476080136 1497.0024281141928 348.41041476080136L1497.0024281141928 348.41041476080136Q1493.8579052786006 348.41041476080136 1491.7754398245656 346.43207257946835Q1489.6929743705311 344.45373039813535 1489.6929743705311 340.4345720718484L1489.6929743705311 340.4345720718484Q1489.6929743705311 336.33211512739996 1491.7754398245656 334.39542225514765Q1493.8579052786006 332.43790472835497 1497.0024281141928 332.43790472835497Z " fill="#ffffff" transform="matrix(0.5816532698967736,0,0,0.5816532698967737,0,65.13216073766823)"/></g></svg>